<svg xmlns="http://www.w3.org/2000/svg" xmlns:xlink="http://www.w3.org/1999/xlink" width="354.2" height="100" viewBox="0 0 354.2 100"><style>.st0{fill:#FFFFFF;} .st1{clip-path:url(#SVGID_2_);fill:#FEFEFE;} .st2{clip-path:url(#SVGID_4_);} .st3{clip-path:url(#SVGID_6_);fill:#FEFEFE;} .st4{clip-path:url(#SVGID_8_);}</style><path class="st0" d="M138.2 60.1v9c0 3-.8 5.3-1.5 7.5-.8 1.5-2.3 3.8-3.8 4.5-1.5 1.5-4.5 2.3-7.5 2.3s-6-.8-7.5-2.3c-1.5-1.5-3-3-3.8-4.5-.8-2.3-1.5-4.5-1.5-7.5V30c0-2.3.8-5.3 1.5-6.8.8-1.5 2.3-3.8 3.8-5.3s4.5-2.3 7.5-2.3 6 .7 7.5 2.3c1.5 1.5 3 3 3.8 5.3.8 2.3 1.5 4.5 1.5 6.8v9h-9v-9c0-1.5-.8-3-1.5-3.8-.8-.7-1.5-.7-2.3-.7-1.5 0-2.3 1.5-3 2.3 0 .8 0 1.5-.8 2.3v39.1c0 1.5.8 3 1.5 3.8.8.8.8.8 1.5.8 2.3 0 3-.8 3-2.3V60.1h10.6zM166 70.6c0 4.5-1.5 8.3-4.5 10.5-1.5 1.5-3.8 2.3-6.8 2.3-6 0-9-3-9.8-6.8-.8-1.5-1.5-3.8-1.5-6.8V45.1c0-4.5 1.5-8.3 4.5-11.3 1.5-1.5 3.8-2.3 6.8-2.3 6 0 9 3 10.5 6 .8 2.3 1.5 3.8 1.5 6v24.8l-.7 2.3zm-8.2-24.8c0-1.5 0-3-1.5-4.5-.8-.8-1.5-.8-2.3-.8-1.5 0-2.3 1.5-3 2.3v27c0 1.5 0 3 1.5 4.5.7.8.7.8 2.3.8 1.5 0 2.3-.8 3-2.3v-27zm37.5 36.8h-9v-3c-1.5 1.5-3 2.3-4.5 3-.8.8-1.5.8-2.3.8-2.3 0-4.5-1.5-5.3-3-1.5-1.5-1.5-4.5-1.5-6V42.8c0-2.3.8-4.5 1.5-6 .8-1.5 3-3 5.3-3 1.5 0 3.8.8 4.5 2.3l2.3 2.3V18h9v66.1-1.5zm-9-38.3c0-1.5-1.5-3-3-3s-2.3 1.5-2.3 3v27.8c0 1.5.8 3 2.3 3 1.5 0 3-1.5 3-3V44.3zm39.1 21.1v6c0 4.5-1.5 8.3-5.3 10.5-1.5 1.5-3.8 2.3-6.8 2.3-6 0-9-3-10.5-6.8-.7-1.5-1.5-3.8-1.5-6.8V45.8c0-4.5 1.5-8.3 5.3-11.3 1.5-1.5 3.8-2.2 6.8-2.2 6 0 9 3 10.5 6 .8 2.3 1.5 3.8 1.5 6v14.3h-15v10.5c0 1.5.8 3 1.5 4.5.7.8.7.8 2.3.8 1.5 0 2.3-.8 3-2.3v-7.5h8.3l-.1.8zm-15.1-12.1h6.8v-6.8c0-1.5 0-3-1.5-4.5-.8-.8-1.5-.8-2.3-.8-1.5 0-2.3 1.5-3 2.3 0 .8 0 1.5-.8 2.3v6.8l.8.7zm39.1-9.7h-2.3c-1.5 0-3 0-4.5 1.5s-2.3 3-2.3 4.5v33.8h-9V34.6h9v5.3c0-.8.8-2.3 2.3-3.8 1.5-1.5 3.8-2.3 6.8-2.3v9.8zm3.8 39.8V17.3h7.5c9 0 13.5 1.5 16.5 6.8 2.3 5.3 3 13.5 3 26.3s0 21-3 26.3c-2.3 5.3-7.5 6.8-16.5 6.8l-7.5-.1zm9.7-9.8c3 0 5.3 0 6-3.8.8-1.5.8-3.8.8-6.8V37.6c0-3-.8-5.3-.8-6.8-.8-3-3-3.8-6-3.8v46.6zm45.8-2.2c0 4.5-1.5 8.3-4.5 10.5-1.5 1.5-3.8 2.3-6.8 2.3-6 0-9-3-9.8-6.8-.8-1.5-1.5-3.8-1.5-6.8V45.8c0-4.5 1.5-8.3 4.5-11.3 1.5-1.5 3.8-2.2 6.8-2.2 6 0 9 3 10.5 6 .8 2.3 1.5 3.8 1.5 6v24.8l-.7 2.3zm-8.2-24.8c0-1.5 0-3-1.5-4.5-.8-.8-1.5-.8-2.3-.8-1.5 0-2.3 1.5-3 2.3v27c0 1.5 0 3 1.5 4.5.8.7.8.7 2.3.7 1.5 0 2.3-.7 3-2.3V46.6zm14.3-29.3h9v9h-9v-9zm9 16.5v50.3c0 2.3 0 6.8-1.5 9.8-1.5 3-3.8 6-9 6h-3.8v-8.3h2.3c1.5 0 2.3-1.5 2.3-3V33.8h9.7zm29.3 36.8c0 4.5-1.5 8.3-4.5 10.5-1.5 1.5-3.8 2.3-6.8 2.3-6 0-9-3-9.8-6.8-.8-1.5-1.5-3.8-1.5-6.8V45.1c0-4.5 1.5-8.3 4.5-11.3 1.5-1.5 3.8-2.3 6.8-2.3 6 0 9 3 10.5 6 .8 2.3 1.5 3.8 1.5 6v24.8c0 .1-.7 2.3-.7 2.3zm-8.3-24.8c0-1.5 0-3-1.5-4.5-.8-.8-1.5-.8-2.3-.8-1.5 0-2.3 1.5-3 2.3v27c0 1.5 0 3 1.5 4.5.8.8.8.8 2.3.8s2.3-.8 3-2.3v-27z"/><defs><path id="SVGID_1_" d="M.1 0h354.1v100H.1z"/></defs><clipPath id="SVGID_2_"><use xlink:href="#SVGID_1_" overflow="visible"/></clipPath><path class="st1" d="M96.9 49.6c0 26.6-21.5 48.1-48.1 48.1C22.3 97.7.7 76.2.7 49.6.8 23 22.3 1.5 48.8 1.5c26.6 0 48.1 21.5 48.1 48.1z"/><defs><path id="SVGID_3_" d="M.1 0h354.1v100H.1z"/></defs><clipPath id="SVGID_4_"><use xlink:href="#SVGID_3_" overflow="visible"/></clipPath><path class="st2" d="M49.6 0c27 0 49.6 21.8 49.6 49.6 0 27-21.8 49.6-49.6 49.6C22.5 99.2 0 77.4 0 49.6 0 22.5 21.8 0 49.6 0zm-.8 2.3h-.7c-25.5 0-45.8 21-45.8 46.6 0 25.5 20.3 46.6 46.6 46.6-12.8 0-22.5-10.5-22.5-23.3s10.5-23.3 23.3-23.3S73 38.4 73 25.6 62.5 2.3 49.7 2.3h-.9z"/><path d="M41.3 30.8V13.5c0-.8 0-1.5.8-2.3.8-.7 1.5-.7 2.3-.7h9c.8 0 1.5 0 2.3.7.8.8.8 1.5.8 2.3v17.3c0 .8 0 1.5-.8 2.3s-1.5.8-2.3.8h-9c-.8 0-1.5 0-2.3-.8-.8-.8-.8-1.5-.8-2.3zm12 0V13.5h-9v17.3h9z"/><path class="st0" d="M45.1 83.4h4.5V66.1h-4.5c-.8 0-.8 0-.8-.7l-.8-.8c0-.8 0-.8.8-.8l.8-.8h7.5v20.3h3v-6c0-.8 0-.8.8-.8l.8-.8c.8 0 .8 0 .8.8l.8.8v7.5c0 .8 0 .8-.8.8l-.8.8h-12c-.8 0-.8 0-.8-.8l-.8-.8c0-.8 0-.8.8-.8l.7-.6z"/></svg>