<svg xmlns="http://www.w3.org/2000/svg" width="30.9" height="30.9" viewBox="0 0 30.9 30.9"><style>.st0,.st1{fill-rule:evenodd;clip-rule:evenodd;fill:#fff}.st1{fill:#1da1f2}</style><path class="st0" d="M30.9 5.8v19.3c0 3.2-2.6 5.8-5.8 5.8H5.8c-3.2 0-5.8-2.6-5.8-5.8V5.8C0 2.6 2.6 0 5.8 0h19.3c3.2 0 5.8 2.6 5.8 5.8z"/><path class="st1" d="M30.9 5.8v19.3c0 3.2-2.6 5.8-5.8 5.8H5.8c-3.2 0-5.8-2.6-5.8-5.8V5.8C0 2.6 2.6 0 5.8 0h19.3c3.2 0 5.8 2.6 5.8 5.8zm-5.2 3.9c-.8.3-1.6.6-2.4.7.9-.6 1.5-1.4 1.9-2.4-.8.5-1.7.8-2.7 1-.8-.8-1.9-1.3-3.1-1.3-2.3 0-4.2 1.9-4.2 4.2 0 .3 0 .7.1 1-3.5-.2-6.6-1.8-8.7-4.4-.4.6-.6 1.3-.6 2.1 0 1.5.7 2.8 1.8 3.5-.7 0-1.4-.2-2-.5 0 2 1.5 3.8 3.5 4.1-.4.1-.6.2-1 .2-.3 0-.5 0-.8-.1.5 1.7 2.1 2.9 3.9 2.9-1.4 1.1-3.3 1.8-5.2 1.8-.3 0-.7 0-1-.1 1.9 1.2 4.1 1.9 6.5 1.9 7.8 0 12-6.4 12-12v-.5c.7-.5 1.5-1.3 2-2.1z"/></svg>