<svg xmlns="http://www.w3.org/2000/svg" width="30.9" height="30.9" viewBox="0 0 30.9 30.9"><style>.st0{fill-rule:evenodd;clip-rule:evenodd;fill:#FFFFFF;} .st1{fill-rule:evenodd;clip-rule:evenodd;fill:#3b5998;}</style><path class="st0" d="M30.9 5.8v19.3c0 3.2-2.6 5.8-5.8 5.8H5.8c-3.2 0-5.8-2.6-5.8-5.8V5.8C0 2.6 2.6 0 5.8 0h19.3c3.2 0 5.8 2.6 5.8 5.8z"/><path class="st1" d="M25.1 0H5.8C2.6 0 0 2.6 0 5.8v19.3c0 3.2 2.6 5.8 5.8 5.8h10.7v-12h-4v-4.7h4v-3.4c0-4 2.5-6.1 6-6.1 1.7 0 3.2.1 3.6.2V9h-2.5c-1.9 0-2.3.9-2.3 2.2v3h4.6l-.6 4.7h-4v12h3.8c3.2 0 5.8-2.6 5.8-5.8V5.8c0-3.2-2.6-5.8-5.8-5.8z"/></svg>
