<svg xmlns="http://www.w3.org/2000/svg" width="28" height="28" viewBox="0 0 28 28"><style>.st0{fill-rule:evenodd;clip-rule:evenodd;fill:#FFFFFF;}</style><path class="st0" d="M28 5.2v17.5c0 2.9-2.4 5.3-5.2 5.3H5.2C2.4 28 0 25.6 0 22.8V5.2C0 2.4 2.4 0 5.2 0h17.5C25.6 0 28 2.4 28 5.2zm-4.7 3.6c-.7.3-1.4.5-2.2.6.8-.5 1.4-1.2 1.7-2.1-.7.4-1.6.8-2.4.9-.7-.7-1.7-1.2-2.8-1.2-2.1 0-3.8 1.7-3.8 3.8 0 .3 0 .6.1.9-3.2-.2-6-1.7-7.9-4-.4.6-.6 1.2-.6 1.9 0 1.3.6 2.5 1.7 3.2-.6 0-1.2-.2-1.8-.5 0 1.9 1.4 3.4 3.2 3.8-.3.1-.6.1-.9.1-.2 0-.5 0-.7-.1.5 1.5 1.9 2.6 3.6 2.7-1.3 1-3 1.6-4.8 1.6-.3 0-.6 0-.9-.1 1.7 1.1 3.7 1.7 5.9 1.7 7 0 10.9-5.8 10.9-10.9v-.5c.6-.4 1.2-1 1.7-1.8z"/></svg>